HIERARCHY
ROOT Hips
{
  OFFSET -79.7045 102.342 5.7837
  CHANNELS 6 Xposition Yposition Zposition Zrotation Xrotation Yrotation
  JOINT RightUpLeg
  {
    OFFSET -8.9458 -8.66707 0.101652
    CHANNELS 3 Zrotation Xrotation Yrotation
    JOINT RightLeg
    {
      OFFSET 0 -44.4227 1.3727
      CHANNELS 3 Zrotation Xrotation Yrotation
      JOINT RightFoot
      {
        OFFSET 0.253549 -42.0924 -1.46059
        CHANNELS 3 Zrotation Xrotation Yrotation
        JOINT RightToes
        {
          OFFSET 0.04 -4.41509 8.4991
          CHANNELS 3 Zrotation Xrotation Yrotation
          End Site
          {
            OFFSET -0.08 -0.137448 9.77979
          }
        }
      }
    }
  }
  JOINT Spine
  {
    OFFSET 0 11.8905 0
    CHANNELS 3 Zrotation Xrotation Yrotation
    JOINT Spine1
    {
      OFFSET 0 25.6574 0.127663
      CHANNELS 3 Zrotation Xrotation Yrotation
      JOINT HEad
      {
        OFFSET 0 8.73416 0.011341
        CHANNELS 3 Zrotation Xrotation Yrotation
        End Site
        {
          OFFSET -0.29 12.7742 2.51395
        }
      }
      JOINT LeftShoulder1
      {
        OFFSET 8.99 -0.362252 -0.22
        CHANNELS 3 Zrotation Xrotation Yrotation
        JOINT LeftArm
        {
          OFFSET 10.2827 -0.00337999 0.322123
          CHANNELS 3 Zrotation Xrotation Yrotation
          JOINT LeftForeArm
          {
            OFFSET 26.2597 0.099144 -1.42434
            CHANNELS 3 Zrotation Xrotation Yrotation
            JOINT LeftHand
            {
              OFFSET 22.0902 0.085362 1.02216
              CHANNELS 3 Zrotation Xrotation Yrotation
              End Site
              {
                OFFSET 13.419 -0.6 1.50291
              }
            }
          }
        }
      }
      JOINT RightShoulder
      {
        OFFSET -8.99 -0.362252 -0.22
        CHANNELS 3 Zrotation Xrotation Yrotation
        JOINT RightArm
        {
          OFFSET -10.2827 -0.00338 0.322123
          CHANNELS 3 Zrotation Xrotation Yrotation
          JOINT RightForeArm
          {
            OFFSET -26.364 0.099144 -1.42434
            CHANNELS 3 Zrotation Xrotation Yrotation
            JOINT RightHand
            {
              OFFSET -22.0324 0.085362 1.02216
              CHANNELS 3 Zrotation Xrotation Yrotation
              End Site
              {
                OFFSET -13.3284 -0.6 1.50291
              }
            }
          }
        }
      }
    }
  }
  JOINT LeftUpLeg
  {
    OFFSET 8.9458 -8.66707 0.101652
    CHANNELS 3 Zrotation Xrotation Yrotation
    JOINT LeftLeg
    {
      OFFSET 0 -44.4227 1.3727
      CHANNELS 3 Zrotation Xrotation Yrotation
      JOINT LeftFoot
      {
        OFFSET -0.253549 -42.0924 -1.46059
        CHANNELS 3 Zrotation Xrotation Yrotation
        JOINT LeftToes
        {
          OFFSET -0.04 -4.41509 8.4991
          CHANNELS 3 Zrotation Xrotation Yrotation
          End Site
          {
            OFFSET 0.08 -0.047448 9.77979
          }
        }
      }
    }
  }
}
MOTION
Frames:	15
Frame Time:	0.0333333
-197.805 104.122 -47.6584 -2.99594 -0.865355 -90.7876 0.479318 -0.800246 -1.36954 -0.769319 10.4999 -9.22229 -1.35009 -3.08262 -0.0779014 0.0462048 0.000530888 0.662642 -2.38412 1.32995 -0.707672 2.22992 7.097 -1.23388 -5.85642 19.9443 -0.589232 -32.9292 -4.26693 14.4236 -79.0854 -44.9303 -37.1326 -168.615 72.9561 170.536 8.81451 8.91976 -8.79466 31.5691 -1.44422 -7.91752 51.3155 -23.3452 16.4992 7.60867 60.033 6.48781 -0.455144 9.91631 1.35304 -0.711707 0.179068 1.26789 1.95527 11.3072 10.3098 3.1601 -6.70641 -0.00340964 -1.34285e-009 8.75234e-006 -1.47603e-008 
-197.848 104.117 -47.79 -2.90234 -0.862094 -90.5751 0.570074 -0.843723 -1.3178 -0.73302 10.4827 -9.48021 -1.33398 -3.14988 -0.0776971 0.0462048 0.000530888 0.662642 -2.09729 1.36511 -0.680903 2.0511 6.96219 -1.16583 -6.25011 20.2221 0.369665 -32.9347 -4.24924 14.3768 -79.1073 -45.1782 -37.0751 -168.96 72.5796 171.073 9.11475 8.86532 -9.03892 31.7058 -1.51576 -8.09111 51.03 -23.5017 16.6848 8.32115 60.7557 5.66439 -0.631817 9.90586 1.32948 -0.621727 0.042691 1.25461 2.01264 11.3899 10.0601 3.08373 -6.74851 -0.0026719 -1.34285e-009 8.75234e-006 -1.47603e-008 
-197.848 104.109 -47.9272 -2.71851 -0.900512 -90.272 0.593825 -1.04572 -1.32439 -0.652713 10.5517 -9.80412 -1.41628 -3.22352 -0.0778344 0.0462048 0.000530888 0.662642 -1.86227 1.38939 -0.687749 1.91437 6.90327 -1.13916 -6.71801 20.2306 1.288 -33.0137 -4.29696 14.4761 -78.9502 -45.236 -37.0458 -169.159 72.2916 171.279 9.3422 8.82927 -9.14264 31.6315 -1.49853 -8.05413 51.0193 -23.7669 16.6306 8.68873 61.1619 5.14978 -0.846375 9.89363 1.4259 -0.584485 -0.256425 1.1795 2.07241 11.5156 9.79837 3.05423 -6.72277 -0.00160172 -1.34285e-009 8.75234e-006 -1.47603e-008 
-197.812 104.092 -48.0772 -2.52763 -0.971659 -89.9478 0.592792 -1.31787 -1.35017 -0.575214 10.7051 -10.1267 -1.55643 -3.32034 -0.0783655 0.0462048 0.000530888 0.662642 -1.66652 1.54329 -0.672839 1.76329 6.78575 -1.08361 -7.13599 20.0673 2.08258 -33.0225 -4.31087 14.509 -78.5568 -45.254 -36.7622 -169.122 72.2634 171.079 9.13827 8.87009 -8.92936 31.2859 -1.33592 -7.66074 51.3006 -23.9349 15.9462 7.75743 60.218 6.0844 -0.629496 9.90684 1.549 -0.558126 -0.611686 1.11207 2.09181 11.6955 9.54358 3.01906 -6.71287 0.000116173 -1.34285e-009 8.75234e-006 -1.47603e-008 
-197.755 104.07 -48.2368 -2.36736 -1.03945 -89.5211 0.615224 -1.55231 -1.36751 -0.49991 10.8365 -10.5445 -1.68067 -3.41028 -0.0793389 0.0462048 0.000530888 0.662642 -1.45653 1.85501 -0.666801 1.58398 6.62975 -1.03106 -7.28098 19.9456 2.74583 -32.9814 -4.30548 14.5069 -78.1999 -45.3079 -36.5014 -169.065 72.2844 170.899 8.73255 8.94079 -8.63504 30.9509 -1.16776 -7.24506 51.6936 -24.1668 15.2255 6.62761 59.4439 7.20873 -0.437805 9.91938 1.8127 -0.495535 -1.01475 1.06303 2.10388 11.9926 9.14275 2.93583 -6.78692 0.00292245 -1.34285e-009 8.75234e-006 -1.47603e-008 
-197.672 104.04 -48.3999 -2.18046 -1.08227 -88.8545 0.625271 -1.79783 -1.43352 -0.357848 10.9373 -11.1517 -1.75893 -3.49797 -0.0808059 0.0462048 0.000530888 0.662642 -1.21879 2.19814 -0.714145 1.47149 6.57711 -1.04839 -7.27966 19.8905 3.55469 -33.0075 -4.35052 14.6138 -78.0618 -45.3023 -36.5675 -169.099 72.222 170.905 8.58727 8.96438 -8.54638 30.841 -1.12405 -7.13753 51.9067 -24.4428 15.147 6.49423 60.1807 7.20701 -0.830809 9.89554 2.18986 -0.415334 -1.58105 0.95063 2.15552 12.4727 8.53535 2.76356 -6.91315 0.00816191 -1.34285e-009 8.75234e-006 -1.47603e-008 
-197.535 103.981 -48.5533 -1.90261 -1.10045 -87.9747 0.57061 -2.21116 -1.61368 -0.0946784 11.157 -11.8734 -1.81859 -3.66896 -0.0828252 0.0462048 0.000530888 0.662642 -0.903927 2.54855 -0.789184 1.47144 6.55052 -1.11359 -7.56926 19.8501 4.89758 -33.0663 -4.40725 14.7412 -78.0092 -45.2541 -36.6611 -169.098 72.2067 170.871 8.71163 8.94429 -8.62033 30.79 -1.1393 -7.18385 51.8593 -24.4202 15.4589 6.93832 61.1013 6.72835 -1.23376 9.86933 2.27334 -0.333172 -2.43798 0.679687 2.19679 13.2432 7.90408 2.50369 -7.1551 0.0166033 -1.34285e-009 8.75234e-006 -1.47603e-008 
-197.326 103.873 -48.6665 -1.52224 -1.08247 -86.9795 0.474893 -2.8905 -1.88536 0.257118 11.6332 -12.6285 -1.91236 -3.99211 -0.0858466 0.0462048 0.000530888 0.662642 -0.38144 2.96996 -0.851826 1.5014 6.35401 -1.15971 -8.3698 19.8808 6.88155 -33.0333 -4.38295 14.6888 -77.9206 -45.3057 -36.409 -169.04 72.2671 170.766 8.82711 8.9265 -8.67475 30.5747 -1.08535 -7.05779 51.7277 -24.1167 15.5685 6.78733 60.6249 7.04703 -0.793262 9.89714 1.8998 -0.209538 -3.70164 0.151674 2.10917 14.5119 7.47389 2.26526 -7.67072 0.0311204 -1.34285e-009 8.75234e-006 -1.47603e-008 
-197.069 103.724 -48.7138 -1.07586 -0.992637 -85.8302 0.391838 -3.76612 -2.18389 0.619942 12.3274 -13.5172 -2.06439 -4.41352 -0.0915928 0.0462048 0.000530888 0.662642 0.39701 3.37991 -0.909784 1.52147 6.09189 -1.18512 -9.4704 20.0377 9.251 -32.9407 -4.3095 14.5286 -77.9295 -45.3935 -36.0792 -169.076 72.2209 170.813 8.90766 8.91391 -8.714 30.248 -0.970863 -6.77459 51.669 -24.0029 15.5445 6.32105 59.7196 7.62551 -0.057578 9.94108 1.53565 -0.00913948 -5.4336 -0.654139 1.80551 16.4407 7.22563 2.12862 -8.31816 0.047228 -1.34285e-009 8.75234e-006 -1.47603e-008 
-196.812 103.585 -48.7093 -0.645473 -0.902939 -84.4539 0.271889 -4.5886 -2.502 0.949455 12.9806 -14.6381 -2.20917 -4.76982 -0.0966427 0.0462048 0.000530888 0.662642 1.22638 3.66577 -0.965646 1.58614 6.02287 -1.22088 -10.6145 20.3028 11.7789 -32.8931 -4.28644 14.4833 -78.1353 -45.3243 -36.033 -169.196 72.0622 170.966 9.0947 8.88171 -8.84372 29.9457 -0.884555 -6.56234 51.6486 -24.2671 15.7736 6.48997 59.9755 7.32258 -0.13991 9.9363 1.6262 0.201261 -7.41895 -1.42695 1.31619 18.7513 6.81391 1.90706 -8.56742 0.0517253 -1.34285e-009 8.75234e-006 -1.47603e-008 
-196.585 103.497 -48.6718 -0.310136 -0.913262 -82.9425 0.0253733 -5.16823 -2.87525 1.22606 13.4237 -15.839 -2.19055 -4.98446 -0.102627 0.0462048 0.000530888 0.662642 1.92808 3.94955 -0.986747 1.66831 6.06747 -1.233 -11.7982 20.6637 14.5076 -32.8092 -4.28509 14.5035 -78.3304 -45.1903 -35.9348 -169.185 72.0586 170.913 9.32947 8.83904 -9.03017 29.6613 -0.82898 -6.43073 51.5805 -24.6009 16.1516 7.15087 60.8487 6.4432 -0.772923 9.89901 1.92801 0.339062 -9.31758 -1.6251 0.829561 21.0016 5.83272 1.24231 -8.32862 0.0426329 -1.34285e-009 8.75234e-006 -1.47603e-008 
-196.385 103.465 -48.5861 -0.0390157 -1.06368 -81.4891 -0.385805 -5.55206 -3.28899 1.41177 13.6886 -16.8852 -1.93629 -5.09063 -0.111131 0.0462048 0.000530888 0.662642 2.51121 4.38435 -0.948339 1.59543 5.94482 -1.15018 -12.9547 21.0814 17.2909 -32.5793 -4.21793 14.3961 -78.2776 -45.2563 -35.3747 -168.995 72.2852 170.627 9.43275 8.81805 -9.13865 29.4114 -0.756604 -6.24716 51.4276 -24.8573 16.3677 7.46325 61.1529 5.99339 -0.894501 9.89127 1.98178 0.368897 -10.9723 -1.03303 0.543176 22.8772 4.29341 0.121425 -8.23058 0.0341702 -1.34285e-009 8.75234e-006 -1.47603e-008 
-196.212 103.489 -48.4348 0.308339 -1.34178 -80.1376 -0.946304 -5.88898 -3.68139 1.47633 13.7942 -17.7998 -1.60232 -5.09032 -0.118686 0.0462048 0.000530888 0.662642 2.9685 4.85045 -0.847172 1.32362 5.66099 -0.965037 -13.7055 21.4667 19.5262 -32.412 -4.1617 14.2986 -78.0168 -45.4708 -34.7714 -168.864 72.4379 170.435 9.36026 8.82807 -9.12684 29.2763 -0.681923 -6.04641 51.1712 -25.1395 16.4729 7.41548 61.1102 5.94429 -0.635089 9.90751 1.87449 0.309237 -12.4607 0.0593788 0.450641 24.1547 2.82084 -0.911589 -8.66327 0.0301663 -1.34285e-009 8.75234e-006 -1.47603e-008 
-196.079 103.564 -48.2446 0.796365 -1.69356 -78.7435 -1.58564 -6.20629 -4.0139 1.44099 13.7014 -18.8192 -1.35729 -4.97484 -0.122062 0.0462048 0.000530888 0.662642 3.20095 5.20004 -0.686763 1.04976 5.38398 -0.737262 -13.9296 21.7935 20.9803 -32.611 -4.2677 14.5143 -77.664 -45.5884 -34.7017 -168.917 72.3463 170.451 9.15675 8.85812 -9.06647 29.1782 -0.647537 -5.95585 50.8669 -25.4018 16.6049 7.53489 61.3246 5.72064 -0.962792 9.88676 1.94529 0.280939 -13.8833 1.40704 0.430509 24.7341 2.16265 -1.32957 -9.15437 0.0285418 -1.34285e-009 8.75234e-006 -1.47603e-008 
-195.992 103.662 -48.058 1.31575 -2.03248 -77.1638 -2.18849 -6.38837 -4.27922 1.34782 13.4171 -20.0805 -1.10432 -4.80032 -0.125208 0.0462048 0.000530888 0.662642 3.20287 5.53828 -0.518352 0.901732 5.07878 -0.541747 -14.1792 22.0585 22.3097 -33.0205 -4.47248 14.92 -77.165 -45.6917 -34.8027 -168.918 72.3098 170.379 8.84749 8.90173 -8.99821 28.9701 -0.637329 -5.94096 50.6739 -25.5576 16.6731 7.76192 61.5629 5.41086 -1.74773 9.83597 2.1692 0.465616 -15.1773 2.97611 0.444793 24.6297 2.53568 -1.1861 -9.14966 0.0280483 -1.34285e-009 8.75234e-006 -1.47603e-008 
